<svg xmlns="http://www.w3.org/2000/svg" viewBox="0 0 100 100">
  <rect width="100" height="100" rx="20"/>
  <path fill="#fff" d="M26.9 44.36q0-1.92 1.23-3.27t3.33-1.35q2.1 0 3.36 1.35 1.26 1.35 1.26 3.27 0 1.98-1.26 3.33t-3.36 1.35q-2.1 0-3.33-1.35t-1.23-3.33Zm-.18 19.92q0-1.98 1.23-3.33t3.33-1.35q2.1 0 3.36 1.35 1.26 1.35 1.26 3.33 0 1.92-1.26 3.27t-3.36 1.35q-2.1 0-3.33-1.35t-1.23-3.27Zm23.76 3.66q-.54.12-1.53.3t-2.13.18q-2.28 0-3.21-.84-.93-.84-.93-2.82V31.58q.48-.12 1.53-.3t2.07-.18q2.16 0 3.18.78t1.02 2.88v11.82h15v-15q.48-.12 1.53-.3t2.07-.18q2.16 0 3.18.81t1.02 2.91v33.12q-.54.12-1.53.3t-2.13.18q-2.28 0-3.21-.84-.93-.84-.93-2.82V52.82h-15v15.12Z"/>
</svg>
